<svg width="32" height="32" viewBox="0 0 32 32" fill="none" xmlns="http://www.w3.org/2000/svg">
<path d="M15.8179 27.2724L11.4165 28.3728V27.758L14.3857 25.9765L14.7498 25.758V25.3334V18V16.9977L13.7882 17.2805L3.4165 20.331V19.0956L14.3801 12.6465L14.7498 12.429V12V4.66669C14.7498 3.97423 15.3074 3.41669 15.9998 3.41669C16.6923 3.41669 17.2498 3.97423 17.2498 4.66669V12V12.429L17.6196 12.6465L28.5832 19.0956V20.331L18.2115 17.2805L17.2498 16.9977V18V25.3334V25.758L17.614 25.9765L20.5832 27.758V28.3728L16.1817 27.2724L15.9998 27.2269L15.8179 27.2724Z" stroke="#989898" stroke-width="1.5"/>
</svg>
