<svg width="32" height="32" viewBox="0 0 32 32" fill="none" xmlns="http://www.w3.org/2000/svg">
<path d="M25.2267 8.01335C24.96 7.22669 24.2133 6.66669 23.3333 6.66669H8.66667C7.78667 6.66669 7.05333 7.22669 6.77333 8.01335L4 16V26.6667C4 27.4 4.6 28 5.33333 28H6.66667C7.4 28 8 27.4 8 26.6667V25.3334H24V26.6667C24 27.4 24.6 28 25.3333 28H26.6667C27.4 28 28 27.4 28 26.6667V16L25.2267 8.01335ZM9.13333 9.33335H22.8533L24.24 13.3334H7.74667L9.13333 9.33335ZM25.3333 22.6667H6.66667V16H25.3333V22.6667Z" fill="#989898"/>
<path d="M10 21.3334C11.1046 21.3334 12 20.4379 12 19.3334C12 18.2288 11.1046 17.3334 10 17.3334C8.89543 17.3334 8 18.2288 8 19.3334C8 20.4379 8.89543 21.3334 10 21.3334Z" fill="#989898"/>
<path d="M22 21.3334C23.1046 21.3334 24 20.4379 24 19.3334C24 18.2288 23.1046 17.3334 22 17.3334C20.8954 17.3334 20 18.2288 20 19.3334C20 20.4379 20.8954 21.3334 22 21.3334Z" fill="#989898"/>
</svg>
