<svg width="32" height="32" viewBox="0 0 32 32" fill="none" xmlns="http://www.w3.org/2000/svg">
<path d="M17.3329 3.99998V5.33331H14.6662V3.99998H17.3329ZM15.9995 13.48L23.1729 15.84L26.3595 16.88L24.8662 22.1733C24.1462 21.7733 23.6129 21.2266 23.3462 20.92L21.3329 18.6133L19.3195 20.9066C18.8662 21.44 17.6129 22.6666 15.9995 22.6666C14.3862 22.6666 13.1329 21.44 12.6795 20.9066L10.6662 18.6133L8.65286 20.9066C8.38619 21.2133 7.85286 21.7466 7.13286 22.1466L5.62619 16.8666L8.82619 15.8133L15.9995 13.48ZM19.9995 1.33331H11.9995V5.33331H7.99953C6.53286 5.33331 5.33286 6.53331 5.33286 7.99998V14.16L3.61286 14.72C3.26619 14.8266 2.97286 15.0666 2.81286 15.3866C2.65286 15.7066 2.61286 16.08 2.73286 16.4266L5.26619 25.3333H5.33286C7.46619 25.3333 9.35953 24.16 10.6662 22.6666C11.9729 24.16 13.8662 25.3333 15.9995 25.3333C18.1329 25.3333 20.0262 24.16 21.3329 22.6666C22.6395 24.16 24.5329 25.3333 26.6662 25.3333H26.7329L29.2529 16.4266C29.3595 16.08 29.3329 15.7066 29.1729 15.3866C29.0129 15.0666 28.7195 14.8266 28.3729 14.72L26.6662 14.16V7.99998C26.6662 6.53331 25.4662 5.33331 23.9995 5.33331H19.9995V1.33331ZM7.99953 13.2933V7.99998H23.9995V13.2933L15.9995 10.6666L7.99953 13.2933ZM21.3329 26.24C19.7062 27.3733 17.8529 27.9466 15.9995 27.9466C14.1462 27.9466 12.2929 27.3733 10.6662 26.24C9.03953 27.3733 7.18619 28 5.33286 28H2.66619V30.6666H5.33286C7.17286 30.6666 8.98619 30.2 10.6662 29.3466C12.3462 30.2 14.1729 30.64 15.9995 30.64C17.8262 30.64 19.6529 30.2133 21.3329 29.3466C23.0129 30.2133 24.8262 30.6666 26.6662 30.6666H29.3329V28H26.6662C24.8129 28 22.9595 27.3733 21.3329 26.24Z" fill="#989898"/>
</svg>
