<svg width="32" height="32" viewBox="0 0 32 32" fill="none" xmlns="http://www.w3.org/2000/svg">
<path d="M27.4263 14.2133C27.2397 13.68 26.733 13.3333 26.133 13.3333H16.5463C15.933 13.3333 15.4397 13.68 15.2397 14.2133L13.333 19.6933L13.3463 27.04C13.3463 27.5466 13.7597 28 14.2663 28H15.093C15.5997 28 15.9997 27.4933 15.9997 26.9866V25.3333H26.6663V26.9866C26.6663 27.4933 27.0797 28 27.5863 28H28.3997C28.9063 28 29.3197 27.5466 29.3197 27.04L29.333 25.2133V19.6933L27.4263 14.2133ZM16.5463 14.6666H26.133L27.5063 18.6666H15.173L16.5463 14.6666ZM15.9997 22.6666C15.2663 22.6666 14.6663 22.0666 14.6663 21.3333C14.6663 20.6 15.2663 20 15.9997 20C16.733 20 17.333 20.6 17.333 21.3333C17.333 22.0666 16.733 22.6666 15.9997 22.6666ZM26.6663 22.6666C25.933 22.6666 25.333 22.0666 25.333 21.3333C25.333 20.6 25.933 20 26.6663 20C27.3997 20 27.9997 20.6 27.9997 21.3333C27.9997 22.0666 27.3997 22.6666 26.6663 22.6666Z" fill="#989898"/>
<path d="M18.6665 12H19.9998V4H9.33317V10.6667H2.6665V28H3.99984V12H10.6665V5.33333H18.6665V12Z" fill="#989898"/>
<path d="M9.33317 14.6667H6.6665V17.3334H9.33317V14.6667Z" fill="#989898"/>
<path d="M15.9997 6.66669H13.333V9.33335H15.9997V6.66669Z" fill="#989898"/>
<path d="M9.33317 20H6.6665V22.6667H9.33317V20Z" fill="#989898"/>
<path d="M9.33317 25.3333H6.6665V28H9.33317V25.3333Z" fill="#989898"/>
</svg>
