<svg width="196" height="196" viewBox="0 0 196 196" fill="none" xmlns="http://www.w3.org/2000/svg">
<circle cx="5.2973" cy="5.2973" r="5.2973" fill="#FBC108"/>
<circle cx="31.7836" cy="5.2973" r="5.2973" fill="#FBC108"/>
<circle cx="58.27" cy="5.2973" r="5.2973" fill="#FBC108"/>
<circle cx="84.7563" cy="5.2973" r="5.2973" fill="#FBC108"/>
<circle cx="111.244" cy="5.2973" r="5.2973" fill="#FBC108"/>
<circle cx="137.73" cy="5.2973" r="5.2973" fill="#FBC108"/>
<circle cx="164.216" cy="5.2973" r="5.2973" fill="#FBC108"/>
<circle cx="190.703" cy="5.2973" r="5.2973" fill="#FBC108"/>
<circle cx="5.2973" cy="31.7836" r="5.2973" fill="#FBC108"/>
<circle cx="31.7836" cy="31.7836" r="5.2973" fill="#FBC108"/>
<circle cx="58.27" cy="31.7836" r="5.2973" fill="#FBC108"/>
<circle cx="84.7563" cy="31.7836" r="5.2973" fill="#FBC108"/>
<circle cx="111.244" cy="31.7836" r="5.2973" fill="#FBC108"/>
<circle cx="137.73" cy="31.7836" r="5.2973" fill="#FBC108"/>
<circle cx="164.216" cy="31.7836" r="5.2973" fill="#FBC108"/>
<circle cx="190.703" cy="31.7836" r="5.2973" fill="#FBC108"/>
<circle cx="5.2973" cy="58.2704" r="5.2973" fill="#FBC108"/>
<circle cx="31.7836" cy="58.2704" r="5.2973" fill="#FBC108"/>
<circle cx="58.27" cy="58.2704" r="5.2973" fill="#FBC108"/>
<circle cx="84.7563" cy="58.2704" r="5.2973" fill="#FBC108"/>
<circle cx="111.244" cy="58.2704" r="5.2973" fill="#FBC108"/>
<circle cx="137.73" cy="58.2704" r="5.2973" fill="#FBC108"/>
<circle cx="164.216" cy="58.2704" r="5.2973" fill="#FBC108"/>
<circle cx="190.703" cy="58.2704" r="5.2973" fill="#FBC108"/>
<circle cx="5.2973" cy="84.7568" r="5.2973" fill="#FBC108"/>
<circle cx="31.7836" cy="84.7565" r="5.2973" fill="#FBC108"/>
<circle cx="58.27" cy="84.7565" r="5.2973" fill="#FBC108"/>
<circle cx="84.7563" cy="84.7565" r="5.2973" fill="#FBC108"/>
<circle cx="111.244" cy="84.7565" r="5.2973" fill="#FBC108"/>
<circle cx="137.73" cy="84.7565" r="5.2973" fill="#FBC108"/>
<circle cx="164.216" cy="84.7565" r="5.2973" fill="#FBC108"/>
<circle cx="190.703" cy="84.7565" r="5.2973" fill="#FBC108"/>
<circle cx="5.2973" cy="111.243" r="5.2973" fill="#FBC108"/>
<circle cx="31.7836" cy="111.243" r="5.2973" fill="#FBC108"/>
<circle cx="58.27" cy="111.243" r="5.2973" fill="#FBC108"/>
<circle cx="84.7563" cy="111.243" r="5.2973" fill="#FBC108"/>
<circle cx="111.244" cy="111.243" r="5.2973" fill="#FBC108"/>
<circle cx="137.73" cy="111.243" r="5.2973" fill="#FBC108"/>
<circle cx="164.216" cy="111.243" r="5.2973" fill="#FBC108"/>
<circle cx="190.703" cy="111.243" r="5.2973" fill="#FBC108"/>
<circle cx="5.2973" cy="137.73" r="5.2973" fill="#FBC108"/>
<circle cx="31.7836" cy="137.73" r="5.2973" fill="#FBC108"/>
<circle cx="58.27" cy="137.73" r="5.2973" fill="#FBC108"/>
<circle cx="84.7563" cy="137.73" r="5.2973" fill="#FBC108"/>
<circle cx="111.244" cy="137.73" r="5.2973" fill="#FBC108"/>
<circle cx="137.73" cy="137.73" r="5.2973" fill="#FBC108"/>
<circle cx="164.216" cy="137.73" r="5.2973" fill="#FBC108"/>
<circle cx="190.703" cy="137.73" r="5.2973" fill="#FBC108"/>
<circle cx="5.2973" cy="164.216" r="5.2973" fill="#FBC108"/>
<circle cx="31.7836" cy="164.216" r="5.2973" fill="#FBC108"/>
<circle cx="58.27" cy="164.216" r="5.2973" fill="#FBC108"/>
<circle cx="84.7563" cy="164.216" r="5.2973" fill="#FBC108"/>
<circle cx="111.244" cy="164.216" r="5.2973" fill="#FBC108"/>
<circle cx="137.73" cy="164.216" r="5.2973" fill="#FBC108"/>
<circle cx="164.216" cy="164.216" r="5.2973" fill="#FBC108"/>
<circle cx="190.703" cy="164.216" r="5.2973" fill="#FBC108"/>
<circle cx="5.2973" cy="190.703" r="5.2973" fill="#FBC108"/>
<circle cx="31.7836" cy="190.703" r="5.2973" fill="#FBC108"/>
<circle cx="58.27" cy="190.703" r="5.2973" fill="#FBC108"/>
<circle cx="84.7563" cy="190.703" r="5.2973" fill="#FBC108"/>
<circle cx="111.244" cy="190.703" r="5.2973" fill="#FBC108"/>
<circle cx="137.73" cy="190.703" r="5.2973" fill="#FBC108"/>
<circle cx="164.216" cy="190.703" r="5.2973" fill="#FBC108"/>
<circle cx="190.703" cy="190.703" r="5.2973" fill="#FBC108"/>
</svg>
