<svg width="200" height="85" viewBox="0 0 200 85" fill="none" xmlns="http://www.w3.org/2000/svg">
<path d="M55.9539 40.2321C55.9539 35.0048 51.1625 27.4892 41.9049 27.4892C33.5183 27.4892 27.8548 34.6781 27.8548 42.0841C27.8548 50.9055 33.9546 57.2216 44.4091 57.2216H64.2309C59.548 64.5186 51.3803 69.2026 42.0131 69.2026C27.2022 69.2026 15.2212 57.1134 15.2212 42.3015C15.2212 27.4892 27.2022 15.4004 42.0131 15.4004C56.825 15.4004 68.9142 27.4892 68.9142 42.3015C68.9142 45.242 68.3698 48.0732 67.608 50.6881H37.6568V47.7462L48.221 47.4206C53.5579 47.2018 55.9539 44.4802 55.9539 40.2321Z" fill="#072F54"/>
<path d="M61.0097 69.2385V67.4016H60.3535V67.0273H62.1107V67.4016H61.456V69.2385H61.0097ZM62.3934 69.2385V67.0273H63.0615L63.4627 68.5358L63.8593 67.0273H64.5292V69.2385H64.1146V67.4978L63.6754 69.2385H63.2453L62.808 67.4978V69.2385H62.3934Z" fill="#072F54"/>
<path d="M91.6294 28.752C91.6294 27.2194 90.2237 25.0151 87.5086 25.0151C85.0498 25.0151 83.3889 27.1224 83.3889 29.2946C83.3889 31.8817 85.1771 33.7349 88.2437 33.7349H94.0572C92.6836 35.8742 90.2876 37.2478 87.5414 37.2478C83.1971 37.2478 79.6841 33.7031 79.6841 29.3584C79.6841 25.0151 83.1967 21.469 87.5414 21.469C91.8851 21.469 95.4309 25.0151 95.4309 29.3584C95.4309 30.2208 95.2708 31.0514 95.0469 31.8183H86.2634V30.9559L89.3617 30.8593C90.9271 30.7958 91.6294 29.9969 91.6294 28.752Z" fill="#072F54"/>
<path d="M101.977 26.3563L104.98 21.9482H109.132L104.021 29.0718L109.547 36.7691H105.139L101.85 31.978L98.5283 36.7695H94.3754L99.805 29.2626L94.5358 21.9482H98.9429L101.977 26.3563ZM114.114 24.8547C115.201 22.5553 117.149 21.5328 119.129 21.5328C122.707 21.5328 125.964 24.5674 125.964 29.3585C125.964 34.1499 122.707 37.1844 119.129 37.1844C117.149 37.1844 115.201 36.1616 114.114 33.8622C114.051 33.7349 113.956 33.7666 113.956 33.8946V42.8703H110.122V21.9489H113.955V24.8234C113.955 24.9506 114.051 24.9838 114.114 24.8558V24.8547ZM118.075 34.0233C120.311 34.0233 122.259 32.075 122.259 29.3595C122.259 26.644 120.311 24.6968 118.075 24.6968C115.871 24.6968 113.89 26.644 113.89 29.3595C113.89 32.075 115.871 34.0233 118.075 34.0233ZM139.155 28.752C139.155 27.2194 137.749 25.0152 135.034 25.0152C132.575 25.0152 130.914 27.1225 130.914 29.2946C130.914 31.8818 132.702 33.7349 135.769 33.7349H141.582C140.209 35.8743 137.813 37.2479 135.067 37.2479C130.722 37.2479 127.209 33.7032 127.209 29.3585C127.209 25.0152 130.722 21.469 135.067 21.469C139.41 21.469 142.956 25.0152 142.956 29.3585C142.956 30.2208 142.796 31.0515 142.572 31.8183H133.788V30.956L136.887 30.8593C138.452 30.7959 139.154 29.9969 139.154 28.752H139.155ZM156.05 33.8622C154.964 36.162 153.015 37.1844 151.035 37.1844C147.458 37.1844 144.2 34.1499 144.2 29.3585C144.2 24.5674 147.458 21.5328 151.035 21.5328C153.015 21.5328 154.964 22.5553 156.05 24.8551C156.113 24.9824 156.21 24.9506 156.21 24.8227V15.5279H160.043V36.768H156.21V33.8932C156.21 33.7659 156.114 33.7342 156.05 33.8607V33.8622ZM152.089 24.6932C149.853 24.6932 147.905 26.6415 147.905 29.357C147.905 32.0725 149.853 34.0208 152.089 34.0208C154.293 34.0208 156.274 32.0725 156.274 29.357C156.274 26.6415 154.293 24.6932 152.089 24.6932ZM162.469 17.6363C162.469 16.4231 163.491 15.4006 164.705 15.4006C165.918 15.4006 166.941 16.4231 166.941 17.6363C166.941 18.8498 165.918 19.8723 164.705 19.8723C163.491 19.8723 162.469 18.8498 162.469 17.6363ZM166.621 36.7691H162.788V21.9478H166.621V36.7691ZM180.387 33.8622C179.301 36.162 177.352 37.1844 175.372 37.1844C171.796 37.1844 168.537 34.1499 168.537 29.3585C168.537 24.5674 171.796 21.5328 175.372 21.5328C177.352 21.5328 179.301 22.5553 180.387 24.8551C180.451 24.9824 180.548 24.9506 180.548 24.8227V21.9482H184.38V36.768H180.547V33.8932C180.547 33.7659 180.451 33.7342 180.387 33.8607V33.8622ZM176.426 24.6932C174.19 24.6932 172.242 26.6415 172.242 29.357C172.242 32.0725 174.19 34.0208 176.426 34.0208C178.631 34.0208 180.611 32.0725 180.611 29.357C180.611 26.6415 178.631 24.6932 176.426 24.6932ZM92.8951 60.1165C92.8951 59.9892 92.7995 59.9561 92.7347 60.084C91.6495 62.3835 89.7333 63.4063 87.7846 63.4063C84.2388 63.4063 81.0132 60.4031 81.0132 55.6441C81.0132 50.8848 84.2388 47.8831 87.7846 47.8831C89.7333 47.8831 91.6495 48.9044 92.7347 51.2039C92.7995 51.3322 92.8951 51.3005 92.8951 51.1714V48.2973H96.7286V62.2559C96.7286 66.3752 93.8847 69.5702 88.9664 69.5702C86.2192 69.5702 83.8242 68.6112 82.0677 66.982L84.3672 64.4908C85.8998 65.705 87.1133 66.3439 88.9026 66.3439C91.7136 66.3439 92.8951 64.3631 92.8951 61.9036V60.1165ZM88.8391 51.0456C86.6349 51.0456 84.7183 52.9625 84.7183 55.6449C84.7183 58.3283 86.6349 60.2438 88.8391 60.2438C91.0102 60.2438 92.9589 58.3283 92.9589 55.6449C92.9589 52.9625 91.0102 51.0456 88.8391 51.0456ZM103.307 48.2984V51.524C103.307 51.5889 103.37 51.6207 103.402 51.524C103.914 48.8734 105.064 47.8827 107.044 47.8827H107.396V51.908H105.671C104.106 51.908 103.307 53.1215 103.307 54.8463V63.1197H99.4747V48.2984H103.307ZM115.54 47.8196C119.852 47.8196 123.397 51.3654 123.397 55.7087C123.397 60.0523 119.851 63.5981 115.54 63.5981C111.165 63.5981 107.619 60.0523 107.619 55.7087C107.619 51.3654 111.165 47.8196 115.54 47.8196ZM115.507 51.3005C113.208 51.3005 111.323 53.2171 111.323 55.7087C111.323 58.2003 113.208 60.1172 115.507 60.1172C117.807 60.1172 119.692 58.2003 119.692 55.7087C119.692 53.2174 117.807 51.3005 115.507 51.3005ZM131.35 63.5981C127.613 63.5981 125.217 61.3304 125.217 58.0085V48.2991H129.05V57.7204C129.05 59.1896 130.008 60.1486 131.445 60.1486C132.755 60.1486 133.746 59.1578 133.746 57.7525V48.2988H137.578V58.0078C137.578 61.33 134.991 63.5977 131.35 63.5977V63.5981ZM144.221 51.2053C145.307 48.9055 147.256 47.8831 149.236 47.8831C152.812 47.8831 156.071 50.9176 156.071 55.7087C156.071 60.5001 152.812 63.5346 149.236 63.5346C147.256 63.5346 145.307 62.5118 144.221 60.2124C144.157 60.0851 144.06 60.1168 144.06 60.2448V69.2205H140.228V48.2995H144.061V51.174C144.061 51.3012 144.157 51.333 144.221 51.2064V51.2053ZM148.182 60.3739C150.418 60.3739 152.366 58.4256 152.366 55.7101C152.366 52.9946 150.418 51.0463 148.182 51.0463C145.977 51.0463 143.997 52.9946 143.997 55.7101C143.997 58.4256 145.977 60.3739 148.182 60.3739Z" fill="#072F54"/>
<path d="M158.896 50.507V48.6687H158.239V48.2944H159.998V48.6687H159.342V50.507H158.896ZM160.28 50.507V48.2944H160.949L161.35 49.8036L161.747 48.2944H162.417V50.507H162.002V48.7656L161.563 50.507H161.133L160.695 48.7656V50.507H160.28Z" fill="#072F54"/>
</svg>
