<svg width="32" height="36" viewBox="0 0 32 36" fill="none" xmlns="http://www.w3.org/2000/svg">
<path d="M22.1667 14.6667V15.1667H22.6667H27.5V27.5H17.8333V22.6667V22.1667H17.3333H14.6667H14.1667V22.6667V27.5H4.5V9.83333H9.33333H9.83333V9.33333V4.5H22.1667V14.6667ZM9.33333 25.8333H9.83333V25.3333V22.6667V22.1667H9.33333H6.66667H6.16667V22.6667V25.3333V25.8333H6.66667H9.33333ZM9.33333 20.5H9.83333V20V17.3333V16.8333H9.33333H6.66667H6.16667V17.3333V20V20.5H6.66667H9.33333ZM9.33333 15.1667H9.83333V14.6667V12V11.5H9.33333H6.66667H6.16667V12V14.6667V15.1667H6.66667H9.33333ZM14.6667 20.5H15.1667V20V17.3333V16.8333H14.6667H12H11.5V17.3333V20V20.5H12H14.6667ZM14.6667 15.1667H15.1667V14.6667V12V11.5H14.6667H12H11.5V12V14.6667V15.1667H12H14.6667ZM14.6667 9.83333H15.1667V9.33333V6.66667V6.16667H14.6667H12H11.5V6.66667V9.33333V9.83333H12H14.6667ZM20 20.5H20.5V20V17.3333V16.8333H20H17.3333H16.8333V17.3333V20V20.5H17.3333H20ZM20 15.1667H20.5V14.6667V12V11.5H20H17.3333H16.8333V12V14.6667V15.1667H17.3333H20ZM20 9.83333H20.5V9.33333V6.66667V6.16667H20H17.3333H16.8333V6.66667V9.33333V9.83333H17.3333H20ZM25.3333 25.8333H25.8333V25.3333V22.6667V22.1667H25.3333H22.6667H22.1667V22.6667V25.3333V25.8333H22.6667H25.3333ZM25.3333 20.5H25.8333V20V17.3333V16.8333H25.3333H22.6667H22.1667V17.3333V20V20.5H22.6667H25.3333Z" fill="#072F54" stroke="#072F54"/>
<line x1="1" y1="35" x2="31" y2="35" stroke="#072F54" stroke-width="2" stroke-linecap="round"/>
</svg>
