<svg width="32" height="32" viewBox="0 0 32 32" fill="none" xmlns="http://www.w3.org/2000/svg">
<path d="M22.667 5.33331H9.33366V3.99998H22.667V5.33331ZM22.667 28H9.33366V26.6666H22.667V28ZM22.667 1.33331H9.33366C7.86699 1.33331 6.66699 2.53331 6.66699 3.99998V28C6.66699 29.4666 7.86699 30.6666 9.33366 30.6666H22.667C24.1337 30.6666 25.3337 29.4666 25.3337 28V3.99998C25.3337 2.53331 24.1337 1.33331 22.667 1.33331ZM9.33366 7.99998H22.667V24H9.33366V7.99998ZM21.3337 14.6666V12.1866C21.3337 11.3466 20.7337 10.6666 20.0003 10.6666H12.0003C11.267 10.6666 10.667 11.3466 10.667 12.1866V14.8C11.4003 14.8 12.0003 15.4 12.0003 16.1333C12.0003 16.8666 11.4003 17.4666 10.667 17.4666V19.8133C10.667 20.6533 11.267 21.3333 12.0003 21.3333H20.0003C20.7337 21.3333 21.3337 20.6533 21.3337 19.8133V17.3333C20.6003 17.3333 20.0003 16.7333 20.0003 16C20.0003 15.2666 20.6003 14.6666 21.3337 14.6666ZM16.667 19.3333H15.3337V18H16.667V19.3333ZM16.667 16.6666H15.3337V15.3333H16.667V16.6666ZM16.667 14H15.3337V12.6666H16.667V14Z" fill="#989898"/>
</svg>
