<svg width="32" height="32" viewBox="0 0 32 32" fill="none" xmlns="http://www.w3.org/2000/svg">
<path d="M30.6668 4.00022C29.39 4.90086 27.9763 5.5897 26.4802 6.04022C25.6771 5.1169 24.6099 4.46248 23.4229 4.16546C22.2358 3.86844 20.9862 3.94315 19.8429 4.3795C18.6997 4.81584 17.7181 5.59276 17.0308 6.60518C16.3435 7.6176 15.9838 8.81667 16.0002 10.0402V11.3736C13.657 11.4343 11.3352 10.9146 9.24151 9.86082C7.14782 8.807 5.34725 7.25174 4.00016 5.33356C4.00016 5.33356 -1.33317 17.3336 10.6668 22.6669C7.92087 24.5308 4.64971 25.4655 1.3335 25.3336C13.3335 32.0002 28.0002 25.3336 28.0002 10.0002C27.9989 9.62883 27.9632 9.25835 27.8935 8.89356C29.2543 7.55155 30.2146 5.85717 30.6668 4.00022V4.00022Z" stroke="#072F54" stroke-width="2" stroke-linecap="round" stroke-linejoin="round"/>
</svg>
